Coordinates
version=1
nRows=4
nColumns=107
inDegrees=yes

Units are S.I. units (second, meters, Newtons, ...)
If the header above contains a line with 'inDegrees', this indicates whether rotational values are in degrees (yes) or radians (no).

endheader
time	sternoclavicular_r2	sternoclavicular_r3	unrotscap_r3	unrotscap_r2	acromioclavicular_r2	acromioclavicular_r3	acromioclavicular_r1	unrothum_r1	unrothum_r3	unrothum_r2	elv_angle	shoulder_elv	shoulder1_r2	shoulder_rot	elbow_flexion	pro_sup	deviation	flexion	proximal_distal_r1	proximal_distal_r3	cmc_flexion	cmc_abduction	mp_flexion	ip_flexion	mcp2_flexion	mcp2_abduction	pm2_flexion	md2_flexion	mcp3_flexion	mcp3_abduction	pm3_flexion	md3_flexion	mcp4_flexion	mcp4_abduction	pm4_flexion	md4_flexion	mcp5_flexion	mcp5_abduction	pm5_flexion	md5_flexion	bicpt_tx	bicpt_ty	bicpt_tz	bicpt2_tx	bicpt2_ty	bicpt2_tz	ptpt_tx	ptpt_ty	ptpt_tz	FCUpt_tx	FCUpt_ty	FCUpt_tz	EDCpt_tx	EDCpt_ty	EDCpt_tz	APLpt_tx	APLpt_ty	APLpt_tz	FPLpt_tx	FPLpt_ty	FPLpt_tz	FPLpt2_tx	FPLpt2_ty	FPLpt2_tz	PEC1pt2_tx	PEC1pt2_ty	PEC1pt2_tz	PEC1pt3_tx	PEC1pt3_ty	PEC1pt3_tz	PEC2pt2_tx	PEC2pt2_ty	PEC2pt2_tz	PEC2pt3_tx	PEC2pt3_ty	PEC2pt3_tz	PEC3pt2_tx	PEC3pt2_ty	PEC3pt2_tz	PEC3pt3_tx	PEC3pt3_ty	PEC3pt3_tz	DELT2pt2a_tx	DELT2pt2a_ty	DELT2pt2a_tz	DELT2pt2_tx	DELT2pt2_ty	DELT2pt2_tz	LAT1pt2_tx	LAT1pt2_ty	LAT1pt2_tz	LAT1pt3_tx	LAT1pt3_ty	LAT1pt3_tz	LAT2pt2_tx	LAT2pt2_ty	LAT2pt2_tz	LAT2pt3_tx	LAT2pt3_ty	LAT2pt3_tz	LAT3pt2_tx	LAT3pt2_ty	LAT3pt2_tz	LAT3pt3_tx	LAT3pt3_ty	LAT3pt3_tz
      1.16666667	     -0.32350564	      0.13702172	     -0.13702172	      0.32350564	     -0.06550331	      0.52937472	      0.23795029	     -0.23795029	     -0.52937472	      0.06550331	     98.21293972	     76.59283512	     -1.71413917	    -19.83831788	     29.25563627	     13.67449039	     -0.01414946	     -0.68447940	     -0.01936634	     -0.34223970	     26.97309612	    -11.89177549	    -18.30266924	      2.93540075	     11.75122983	     11.99585098	     30.98977541	     -3.76002058	     12.49474529	      5.96919243	     23.00727538	     22.32573106	      6.99087005	     -2.73053893	     24.75496890	     25.71553931	      7.01457824	    -13.65132574	     20.77197784	      5.27839199	      0.00086769	     -0.03095314	     -0.00484010	      0.01573248	     -0.01814744	     -0.00979447	      0.00653961	     -0.06555334	     -0.00115155	      0.00523677	     -0.18394430	      0.00006142	     -0.00164094	      0.00041630	      0.00014761	      0.00030796	      0.00012319	      0.00061593	      0.00039419	      0.00118258	      0.00066520	     -0.00000366	     -0.00027013	     -0.00032416	      0.00251055	      0.00880818	      0.00612743	     -0.00821246	      0.01982905	     -0.01880781	      0.00251055	      0.00880818	      0.00612743	      0.00055317	      0.01838230	     -0.00965922	      0.00396403	      0.00489812	      0.01600684	      0.00000000	      0.00784621	      0.00000000	     -0.00719122	     -0.03323281	     -0.00646993	      0.01368278	     -0.00042698	     -0.00324226	     -0.00089358	      0.01497817	     -0.00612743	      0.00246799	      0.02161622	     -0.01787168	     -0.00599978	      0.01297824	     -0.00548916	     -0.01251017	      0.02740324	     -0.03067971	     -0.02348849	      0.01451010	     -0.00736143	     -0.01557389	      0.03165840	     -0.03833900
      1.20000000	     -0.32359096	      0.13705786	     -0.13705786	      0.32359096	     -0.06552059	      0.52951434	      0.23801305	     -0.23801305	     -0.52951434	      0.06552059	     98.50947852	     76.61303594	     -1.71931474	    -19.86408618	     28.60081035	     13.41422124	     -0.01653144	     -0.67487981	     -0.02265879	     -0.33743990	     28.63565048	    -12.17390639	    -17.91165873	      3.34468071	      9.77246553	     11.99375974	     29.12653009	     -4.38317662	     10.55618481	      5.45909634	     20.94556072	     21.27768445	      5.09421874	     -2.83655362	     22.49089693	     24.72153645	      4.84534485	    -13.78430016	     18.58550159	      5.03401926	      0.00084603	     -0.03087809	     -0.00482801	      0.01571624	     -0.01796955	     -0.00981260	      0.00655884	     -0.06554090	     -0.00113059	      0.00521269	     -0.18394776	      0.00006845	     -0.00160970	      0.00040784	      0.00014574	      0.00030908	      0.00012363	      0.00061816	      0.00039562	      0.00118686	      0.00066761	     -0.00000654	     -0.00026041	     -0.00031249	      0.00251121	      0.00881051	      0.00612905	     -0.00821463	      0.01983428	     -0.01881277	      0.00251121	      0.00881051	      0.00612905	      0.00055332	      0.01838714	     -0.00966176	      0.00396479	      0.00489941	      0.01600869	      0.00000000	      0.00785037	      0.00000000	     -0.00719312	     -0.03324157	     -0.00647338	      0.01369774	     -0.00042776	     -0.00325110	     -0.00089382	      0.01498212	     -0.00612905	      0.00246864	      0.02162192	     -0.01787639	     -0.00600136	      0.01298166	     -0.00549061	     -0.01251347	      0.02741046	     -0.03068780	     -0.02349468	      0.01451393	     -0.00736337	     -0.01557800	      0.03166675	     -0.03834911
      1.23333333	     -0.32471160	      0.13753251	     -0.13753251	      0.32471160	     -0.06574749	      0.53134813	      0.23883733	     -0.23883733	     -0.53134813	      0.06574749	     98.15453646	     76.87835874	     -1.71311984	    -18.89936906	     29.00392516	     13.22242214	      0.01606956	     -0.54950855	      0.02159729	     -0.27475428	     28.73834858	    -13.04227109	    -16.27516181	      6.11150864	      7.24494852	     11.33012378	     26.13072840	     -6.15470302	      8.49713044	      4.45718298	     17.20371231	     17.63104385	      4.03350617	     -2.89950959	     15.97267175	     22.10047838	      3.25129787	    -13.70892859	     12.10233270	      5.24019652	      0.00085936	     -0.03092429	     -0.00483546	      0.01570418	     -0.01807906	     -0.00982590	      0.00657301	     -0.06553174	     -0.00111514	      0.00519496	     -0.18395030	      0.00007366	     -0.00158669	      0.00040161	      0.00014435	      0.00030935	      0.00012374	      0.00061870	      0.00039597	      0.00118790	      0.00066819	     -0.00000669	     -0.00025963	     -0.00031156	      0.00251990	      0.00884102	      0.00615027	     -0.00824308	      0.01990297	     -0.01887792	      0.00251990	      0.00884102	      0.00615027	      0.00055523	      0.01845082	     -0.00969522	      0.00397478	      0.00491638	      0.01603287	      0.00000000	      0.00790524	      0.00000000	     -0.00721803	     -0.03335669	     -0.00651893	      0.01313303	     -0.00039838	     -0.00292576	     -0.00089691	      0.01503400	     -0.00615027	      0.00247719	      0.02169680	     -0.01793830	     -0.00602214	      0.01302662	     -0.00550962	     -0.01255681	      0.02750539	     -0.03079408	     -0.02357605	      0.01456419	     -0.00738887	     -0.01563195	      0.03177642	     -0.03848192
      1.26666667	     -0.32350619	      0.13702195	     -0.13702195	      0.32350619	     -0.06550342	      0.52937562	      0.23795070	     -0.23795070	     -0.52937562	      0.06550342	     98.47788311	     76.59296646	     -1.71876330	    -20.60060887	     28.97405509	     15.57570228	      0.02162788	     -0.47257829	      0.02896933	     -0.23628915	     28.90275629	    -14.45221223	    -12.38033338	      1.61951222	      4.09330102	     10.95213092	     26.25967465	     -8.50282094	      6.14213224	      3.71625610	     15.15824528	     18.31751467	      2.58975801	     -3.21842232	     11.85117644	     24.72602506	      0.90747155	    -13.78750212	     10.83264503	      5.18878229	      0.00085837	     -0.03092087	     -0.00483491	      0.01584642	     -0.01807094	     -0.00965916	      0.00639913	     -0.06564417	     -0.00130471	      0.00541329	     -0.18391845	      0.00001158	     -0.00186908	      0.00047875	      0.00016011	      0.00029650	      0.00011860	      0.00059299	      0.00037951	      0.00113854	      0.00064043	     -0.00000695	     -0.00025851	     -0.00031021	      0.00251055	      0.00880820	      0.00612744	     -0.00821248	      0.01982908	     -0.01880784	      0.00251055	      0.00880820	      0.00612744	      0.00055317	      0.01838233	     -0.00965923	      0.00396403	      0.00489813	      0.01600685	      0.00000000	      0.00784623	      0.00000000	     -0.00719123	     -0.03323287	     -0.00646995	      0.01412043	     -0.00045045	     -0.00350951	     -0.00089359	      0.01497819	     -0.00612744	      0.00246800	      0.02161626	     -0.01787171	     -0.00599979	      0.01297826	     -0.00548917	     -0.01251020	      0.02740328	     -0.03067976	     -0.02348853	      0.01451012	     -0.00736144	     -0.01557392	      0.03165845	     -0.03833907
